<?xml version="1.0" encoding="UTF-8"?>
<svg version="1.1" xmlns="http://www.w3.org/2000/svg" width="225" height="225">
<path d="M0 0 C74.25 0 148.5 0 225 0 C225 74.25 225 148.5 225 225 C150.75 225 76.5 225 0 225 C0 150.75 0 76.5 0 0 Z " fill="#1C99F5" transform="translate(0,0)"/>
<path d="M0 0 C74.25 0 148.5 0 225 0 C225 30.36 225 60.72 225 92 C224.67 92 224.34 92 224 92 C223.814375 90.9790625 223.814375 90.9790625 223.625 89.9375 C220.85828049 76.9339183 214.79659747 64.96445409 206 55 C205.34644531 54.20464844 204.69289062 53.40929688 204.01953125 52.58984375 C185.58079958 30.85968093 156.07966064 18.32766751 128 16 C102.00584765 15.01390207 78.40297511 17.03779778 55 29 C54.06800781 29.46148438 53.13601562 29.92296875 52.17578125 30.3984375 C31.73110168 40.95617503 14.74159393 57.68998239 6.76953125 79.53125 C-0.54289225 102.99039545 1.23166586 124.4802639 12.64916992 146.2800293 C16.79799445 153.85835501 23.05771442 164.02885721 31 168 C30.42956304 176.83690202 28.76360851 185.14600425 26.72851562 193.74609375 C24.34075701 202.477979 24.34075701 202.477979 26.125 210.9375 C28.88590607 212.50201344 30.84873267 212.25098177 34 212 C37.30512822 210.71362196 37.30512822 210.71362196 40.6484375 208.859375 C41.26465973 208.53592102 41.88088196 208.21246704 42.51577759 207.87921143 C44.475155 206.84756871 46.4250532 205.79933987 48.375 204.75 C49.67647523 204.06004961 50.97855413 203.37123667 52.28125 202.68359375 C58.92862874 199.17129016 58.92862874 199.17129016 65.55566406 195.62084961 C71.04583711 192.73272361 74.08671538 192.8005678 80 194 C81.98232305 194.36828946 83.964663 194.73649 85.94726562 195.10327148 C87.32084074 195.36089609 88.6933315 195.62439689 90.06445312 195.89477539 C122.77334777 202.30931704 157.47837498 195.59101833 185.34985352 177.3059082 C189.36511743 174.57156541 193.04240002 171.57456867 196.546875 168.21484375 C198 167 198 167 200 167 C200.39638672 166.12021484 200.39638672 166.12021484 200.80078125 165.22265625 C202.04300714 162.92028969 203.39631548 161.33525385 205.1875 159.4375 C214.81331212 148.63097496 220.67268789 135.98553141 224 122 C224.33 122 224.66 122 225 122 C225 155.99 225 189.98 225 225 C150.75 225 76.5 225 0 225 C0 150.75 0 76.5 0 0 Z " fill="#FDFEFE" transform="translate(0,0)"/>
<path d="M0 0 C5.4375 1.97727273 5.4375 1.97727273 7.16015625 5.109375 C7.43730469 5.73328125 7.71445313 6.3571875 8 7 C8.55429688 6.57847656 9.10859375 6.15695313 9.6796875 5.72265625 C10.40414062 5.17480469 11.12859375 4.62695312 11.875 4.0625 C12.59429687 3.51722656 13.31359375 2.97195312 14.0546875 2.41015625 C18.67097242 -0.93618684 23.47061128 -0.54149876 29 0 C33.15256212 1.30466494 35.54141336 3.26626137 37.875 7 C39.72541425 11.93443801 40.11942757 15.85967231 40.09765625 21.171875 C40.0962413 21.8542926 40.09482635 22.53671021 40.09336853 23.23980713 C40.08779084 25.40991684 40.07524254 27.5799217 40.0625 29.75 C40.05748211 31.22525892 40.05291971 32.70051947 40.04882812 34.17578125 C40.03782875 37.78388798 40.02057953 41.39193375 40 45 C37.03 45 34.06 45 31 45 C30.96241577 43.5773584 30.96241577 43.5773584 30.92407227 42.12597656 C30.8288116 38.59981968 30.72958559 35.07382041 30.62768555 31.54785156 C30.58443293 30.02315614 30.54275115 28.49841531 30.50268555 26.97363281 C30.44474797 24.77915778 30.38112205 22.58490932 30.31640625 20.390625 C30.29969376 19.7113092 30.28298126 19.03199341 30.26576233 18.33209229 C30.16492528 15.09461448 29.96860824 12.10230396 29 9 C25.31103735 8.34748647 21.75092499 7.86811094 18 8 C14.54434574 10.48807107 13.33704848 11.98885457 12 16 C11.84890907 18.20959253 11.75126199 20.42300047 11.68359375 22.63671875 C11.62075195 24.58481445 11.62075195 24.58481445 11.55664062 26.57226562 C11.51683013 27.94400761 11.47711784 29.31575244 11.4375 30.6875 C11.39429165 32.07097645 11.35067661 33.45444027 11.30664062 34.83789062 C11.20041972 38.22515719 11.09837642 41.61249799 11 45 C8.36 45 5.72 45 3 45 C2.98598145 43.68394775 2.98598145 43.68394775 2.97167969 42.34130859 C2.92748397 39.06432578 2.86579348 35.78861857 2.79248047 32.51220703 C2.76437608 31.09826552 2.74310933 29.68416998 2.72900391 28.27001953 C2.70742544 26.22869616 2.66070914 24.18920401 2.609375 22.1484375 C2.58842773 20.92302246 2.56748047 19.69760742 2.54589844 18.43505859 C1.89816977 14.35923463 0.62471825 12.15872889 -2 9 C-5.88133471 7.80031473 -7.97659313 7.58133355 -11.75 9.125 C-15.21039141 12.00865951 -16.81330244 14.64504588 -17.43237305 19.13793945 C-17.45855713 20.28480225 -17.48474121 21.43166504 -17.51171875 22.61328125 C-17.54716797 23.86044922 -17.58261719 25.10761719 -17.61914062 26.39257812 C-17.65297852 28.33293945 -17.65297852 28.33293945 -17.6875 30.3125 C-17.72166016 31.62541016 -17.75582031 32.93832031 -17.79101562 34.29101562 C-17.87339272 37.52725851 -17.94258016 40.76323385 -18 44 C-20.64 44 -23.28 44 -26 44 C-26 29.81 -26 15.62 -26 1 C-23.36 1 -20.72 1 -18 1 C-17.67 2.32 -17.34 3.64 -17 5 C-16.52691406 4.6390625 -16.05382812 4.278125 -15.56640625 3.90625 C-10.35349114 0.24806396 -6.34475468 -1.07896013 0 0 Z " fill="#D4EEFB" transform="translate(107,85)"/>
<path d="M0 0 C2.86304546 1.59329396 5.93752827 3.45902678 7.76953125 6.20703125 C7.45703125 8.39453125 7.45703125 8.39453125 6.76953125 10.20703125 C3.95703125 10.89453125 3.95703125 10.89453125 0.76953125 11.20703125 C-0.85546875 9.83203125 -0.85546875 9.83203125 -2.23046875 8.20703125 C-5.78220345 6.8117069 -9.46449984 6.99781076 -13.23046875 7.20703125 C-15.79592815 9.77249065 -15.77092962 11.68389793 -16.23046875 15.20703125 C-15.07289063 15.449375 -13.9153125 15.69171875 -12.72265625 15.94140625 C-11.18344729 16.27928139 -9.64439274 16.6178605 -8.10546875 16.95703125 C-6.96464844 17.19292969 -6.96464844 17.19292969 -5.80078125 17.43359375 C0.38737966 18.82059533 5.12030997 20.73319933 8.76953125 26.20703125 C9.42544258 30.21844687 9.63510173 34.34450906 7.89453125 38.08984375 C4.89251815 42.0201109 1.42198367 43.83417644 -3.23046875 45.20703125 C-10.04630724 46.10912752 -15.60578163 45.2852412 -21.23046875 41.20703125 C-23.28177798 39.29547058 -24.62939416 37.55860956 -26.23046875 35.20703125 C-26.23046875 34.21703125 -26.23046875 33.22703125 -26.23046875 32.20703125 C-24.09687756 30.9116366 -22.75439121 30.1742861 -20.23046875 30.33203125 C-17.63554322 31.46731117 -16.15409557 33.15516264 -14.23046875 35.20703125 C-11.89080185 36.3768647 -10.39655348 36.37315535 -7.79296875 36.39453125 C-7.01050781 36.40871094 -6.22804687 36.42289063 -5.421875 36.4375 C-2.93840888 36.34789189 -2.93840888 36.34789189 -0.23046875 34.20703125 C0.01984102 31.62322948 0.01984102 31.62322948 -0.23046875 29.20703125 C-4.54394859 27.2463586 -8.829991 25.68304467 -13.35546875 24.26953125 C-17.66907565 22.8550569 -21.05929037 21.59691159 -24.23046875 18.20703125 C-25.4658092 14.5010099 -25.6857562 12.10949511 -25.23046875 8.20703125 C-19.86084096 -0.7483547 -9.85176197 -3.50246529 0 0 Z " fill="#DAEFF9" transform="translate(179.23046875,85.79296875)"/>
<path d="M0 0 C2.11501065 1.48253139 3.50197604 2.80746924 4.6328125 5.14453125 C4.3028125 6.13453125 3.9728125 7.12453125 3.6328125 8.14453125 C0.8828125 8.83203125 0.8828125 8.83203125 -2.3671875 9.14453125 C-2.9653125 8.69078125 -3.5634375 8.23703125 -4.1796875 7.76953125 C-7.52891956 5.28153029 -11.26080875 5.17344941 -15.3671875 5.14453125 C-17.56869475 5.57933526 -17.56869475 5.57933526 -19.3671875 6.14453125 C-19.3671875 8.12453125 -19.3671875 10.10453125 -19.3671875 12.14453125 C-18.82191406 12.32628906 -18.27664062 12.50804688 -17.71484375 12.6953125 C-16.12578048 13.22500026 -14.53727883 13.75637463 -12.94921875 14.2890625 C-11.28407799 14.84075059 -9.61498949 15.38072869 -7.94140625 15.90625 C2.31191698 19.16318797 2.31191698 19.16318797 5.6328125 24.14453125 C6.4684093 29.25486536 6.25247481 33.07948665 3.6328125 37.58203125 C-1.69240416 42.13065381 -7.13327231 43.76190368 -14.12890625 43.49609375 C-19.33820369 42.67787949 -23.16104281 40.38160272 -26.8046875 36.64453125 C-28.21695306 34.38490636 -28.97986886 32.7589321 -29.3671875 30.14453125 C-27.28555694 28.88068412 -25.89232535 28.12759132 -23.4296875 28.20703125 C-21.3671875 29.14453125 -21.3671875 29.14453125 -19.2421875 31.70703125 C-15.56065744 34.82832848 -13.34534755 34.67010158 -8.671875 34.61328125 C-6.33126393 34.28471448 -6.33126393 34.28471448 -4.5 32.92578125 C-3.08456364 31.11349699 -3.08456364 31.11349699 -3.6796875 28.45703125 C-3.9065625 27.69390625 -4.1334375 26.93078125 -4.3671875 26.14453125 C-5.97787109 25.69013672 -5.97787109 25.69013672 -7.62109375 25.2265625 C-21.91584486 21.06403559 -21.91584486 21.06403559 -27.3671875 16.14453125 C-29.10381688 12.67127249 -28.82131312 8.94207446 -28.3671875 5.14453125 C-26.10583727 0.81027663 -23.15015772 -0.88918284 -18.640625 -2.34765625 C-11.86103079 -3.8619986 -6.06913216 -3.47685102 0 0 Z " fill="#D6EDFA" transform="translate(68.3671875,87.85546875)"/>
<path d="M0 0 C1.10601562 -0.01836914 1.10601562 -0.01836914 2.234375 -0.03710938 C4.15770058 -0.04237395 6.08054263 0.06546553 8 0.1875 C8.99 1.1775 8.99 1.1775 10 2.1875 C-20.04379188 16.4497242 -56.24322577 20.30237098 -88 9.1875 C-88 8.8575 -88 8.5275 -88 8.1875 C-62.26 8.1875 -36.52 8.1875 -10 8.1875 C-10 5.8775 -10 3.5675 -10 1.1875 C-6.84044583 -0.39227708 -3.46536183 0.00302916 0 0 Z " fill="#197BEF" transform="translate(162,183.8125)"/>
<path d="M0 0 C0.66 0.33 1.32 0.66 2 1 C2 11.23 2 21.46 2 32 C4.64 32 7.28 32 10 32 C10 29.36 10 26.72 10 24 C15.28 24 20.56 24 26 24 C26 21.69 26 19.38 26 17 C27 16 27 16 30.37890625 15.90234375 C31.77347077 15.90901631 33.16801743 15.92097468 34.5625 15.9375 C35.27341797 15.94201172 35.98433594 15.94652344 36.71679688 15.95117188 C38.47790013 15.96299136 40.23896036 15.98092737 42 16 C39.29289905 19.25449269 35.73909735 20.77601212 32 22.5625 C27.25554217 24.86471426 22.55708495 27.21507166 17.9296875 29.74609375 C17.08792969 30.20363037 16.24617188 30.66116699 15.37890625 31.13256836 C13.73814822 32.02861806 12.10248227 32.93407018 10.47265625 33.84985352 C6.17930784 36.17892189 3.02470026 37.73403001 -2 37 C-4.375 35.4375 -4.375 35.4375 -6 33 C-6.72010391 25.99358361 -4.6391914 19.32970232 -3 12.5625 C-2.71382812 11.35400391 -2.42765625 10.14550781 -2.1328125 8.90039062 C-1.42881435 5.93186508 -0.71768918 2.96523973 0 0 Z " fill="#197CEE" transform="translate(30,176)"/>
<path d="M0 0 C0.99 0.33 1.98 0.66 3 1 C5.14255793 0.61067144 5.14255793 0.61067144 7 0 C7 1.65 7 3.3 7 5 C7.66 5 8.32 5 9 5 C10.125 7.25 10.125 7.25 11 10 C10.54488037 10.87350098 10.54488037 10.87350098 10.08056641 11.76464844 C8.63963503 14.74548163 8.67601244 17.21287737 8.5859375 20.515625 C8.52792969 22.39121094 8.52792969 22.39121094 8.46875 24.3046875 C8.42234375 26.25761719 8.42234375 26.25761719 8.375 28.25 C8.33632812 29.56742188 8.29765625 30.88484375 8.2578125 32.2421875 C8.16353818 35.49465161 8.0779325 38.74710996 8 42 C5.36 42 2.72 42 0 42 C0 28.14 0 14.28 0 0 Z " fill="#DDF1FC" transform="translate(81,87)"/>
<path d="M0 0 C0.97608217 2.92824652 1.08226668 4.95613276 1 8 C-0.98 8 -2.96 8 -5 8 C-6.36579868 11.93954953 -6.36579868 11.93954953 -7 16 C-9.31 16.33 -11.62 16.66 -14 17 C-14.33 19.31 -14.66 21.62 -15 24 C-16.134375 24.12375 -17.26875 24.2475 -18.4375 24.375 C-20.2009375 24.684375 -20.2009375 24.684375 -22 25 C-23.231394 27.46278801 -23.07159196 29.2795055 -23 32 C-26.465 32.495 -26.465 32.495 -30 33 C-30.2165625 34.85625 -30.2165625 34.85625 -30.4375 36.75 C-30.78608173 39.57351203 -31.28583801 42.24537518 -32 45 C-32 45.99 -32 46.98 -32 48 C-34.97 48 -37.94 48 -41 48 C-33.70788292 27.07479448 -18.5758312 11.55899109 0 0 Z " fill="#22B0F5" transform="translate(47,32)"/>
<path d="M0 0 C3.92542903 3.27119086 4.8645018 6.07498933 6 11 C6.15494629 13.48430549 6.21596849 15.97579665 6.1953125 18.46484375 C6.1924826 19.14301651 6.18965271 19.82118927 6.18673706 20.51991272 C6.17565416 22.65929766 6.1505736 24.7982443 6.125 26.9375 C6.11495476 28.39908244 6.10583163 29.86067153 6.09765625 31.32226562 C6.07575425 34.88164979 6.04130866 38.44078203 6 42 C3.03 42 0.06 42 -3 42 C-3.02505615 41.04633545 -3.0501123 40.0926709 -3.07592773 39.11010742 C-3.17012071 35.57090893 -3.27031231 32.03190125 -3.37231445 28.49291992 C-3.41561833 26.96138982 -3.45729667 25.42981285 -3.49731445 23.89819336 C-3.55512732 21.69630818 -3.61878969 19.49465789 -3.68359375 17.29296875 C-3.70030624 16.60849167 -3.71701874 15.92401459 -3.73423767 15.21879578 C-3.8273555 12.22879896 -4.04687437 9.85937689 -5 7 C-2.03 7.495 -2.03 7.495 1 8 C1 8.66 1 9.32 1 10 C1.66 10 2.32 10 3 10 C2.01 6.7 1.02 3.4 0 0 Z " fill="#C3E3F9" transform="translate(141,88)"/>
<path d="M0 0 C5.5710837 -0.16166091 10.57195204 0.28771062 16 1.625 C16.73275146 1.80393799 17.46550293 1.98287598 18.22045898 2.16723633 C31.728469 5.6032938 50.65209327 11.05356647 60 22 C59.67 22.66 59.34 23.32 59 24 C55.37 24 51.74 24 48 24 C48 21.36 48 18.72 48 16 C42.72 16 37.44 16 32 16 C32 13.36 32 10.72 32 8 C24.08 8 16.16 8 8 8 C8 6.35 8 4.7 8 3 C5.36 3.33 2.72 3.66 0 4 C0 2.68 0 1.36 0 0 Z " fill="#21B8F7" transform="translate(128,16)"/>
<path d="M0 0 C0.495 1.485 0.495 1.485 1 3 C-1.64106835 7.25056648 -4.88132739 11.09017476 -8 15 C-8.48855469 15.65742188 -8.97710937 16.31484375 -9.48046875 16.9921875 C-15.43850103 24.65513363 -24.77258183 31.00560953 -33 36 C-35.875 35.75 -35.875 35.75 -38 35 C-38 33.68 -38 32.36 -38 31 C-37.34 31.33 -36.68 31.66 -36 32 C-36.33 32.66 -36.66 33.32 -37 34 C-36.34 34 -35.68 34 -35 34 C-35 33.01 -35 32.02 -35 31 C-33.35 31 -31.7 31 -30 31 C-30 28.36 -30 25.72 -30 23 C-28 25 -28 25 -28 27 C-26.68 27 -25.36 27 -24 27 C-24 26.34 -24 25.68 -24 25 C-24.66 25 -25.32 25 -26 25 C-26 24.34 -26 23.68 -26 23 C-24.68 23.33 -23.36 23.66 -22 24 C-22 21.03 -22 18.06 -22 15 C-19.03 15 -16.06 15 -13 15 C-13.33 12.36 -13.66 9.72 -14 7 C-11.36 7 -8.72 7 -6 7 C-6 5.35 -6 3.7 -6 2 C-4.7934375 1.7834375 -4.7934375 1.7834375 -3.5625 1.5625 C-1.07896294 1.25864751 -1.07896294 1.25864751 0 0 Z " fill="#1B84EE" transform="translate(214,145)"/>
<path d="M0 0 C0.66 0 1.32 0 2 0 C3.40912096 2.81824192 3.11183553 5.17251282 3.09765625 8.3203125 C3.09443359 9.57714844 3.09121094 10.83398438 3.08789062 12.12890625 C3.07951172 13.44761719 3.07113281 14.76632813 3.0625 16.125 C3.05748489 17.46484211 3.05292201 18.804686 3.04882812 20.14453125 C3.03701086 23.42973206 3.02053617 26.71484397 3 30 C0.69 30 -1.62 30 -4 30 C-4 21.09 -4 12.18 -4 3 C-3.01 2.67 -2.02 2.34 -1 2 C-0.67 1.34 -0.34 0.68 0 0 Z " fill="#E2EFFB" transform="translate(114,99)"/>
<path d="M0 0 C3.23933018 1.07977673 4.4332548 1.86882284 5.95703125 4.91015625 C8 10.05022831 8 10.05022831 8 13 C7.34 13 6.68 13 6 13 C6 12.34 6 11.68 6 11 C5.21625 10.896875 4.4325 10.79375 3.625 10.6875 C-1.0323976 9.80420046 -5.48192149 8.41971242 -10 7 C-10.33 5.35 -10.66 3.7 -11 2 C-11 2.66 -11 3.32 -11 4 C-12.5 5.625 -12.5 5.625 -14 7 C-15.32 6.34 -16.64 5.68 -18 5 C-11.76357605 -0.08760901 -7.99786456 -0.60186535 0 0 Z " fill="#D9F0FB" transform="translate(136,85)"/>
<path d="M0 0 C-0.474375 0.4125 -0.94875 0.825 -1.4375 1.25 C-3.17899313 3.2004723 -3.46553219 4.48852019 -4 7 C-13.98678356 8.25676377 -23.95631733 8.09367165 -34 8 C-31.12441841 5.12441841 -27.62770061 4.52433229 -23.8125 3.4375 C-23.06935547 3.21642578 -22.32621094 2.99535156 -21.56054688 2.76757812 C-14.33526065 0.67154855 -7.5047566 -0.1316624 0 0 Z " fill="#25BAF7" transform="translate(100,16)"/>
<path d="M0 0 C0.33 0 0.66 0 1 0 C1.33 7.92 1.66 15.84 2 24 C2.66 24 3.32 24 4 24 C4.33 25.32 4.66 26.64 5 28 C4.34 28 3.68 28 3 28 C3.33 29.32 3.66 30.64 4 32 C-0.95 32 -5.9 32 -11 32 C-11 31.01 -11 30.02 -11 29 C-10.01 29 -9.02 29 -8 29 C-7.67 28.01 -7.34 27.02 -7 26 C-4.69 26 -2.38 26 0 26 C0 17.42 0 8.84 0 0 Z " fill="#168FF4" transform="translate(147,104)"/>
<path d="M0 0 C1.12345806 3.37037418 0.93107951 3.75131686 -0.3125 6.875 C-5.59830441 21.81103449 -4.15212166 36.68534858 -2 52 C-2.99 52 -3.98 52 -5 52 C-5.90446066 47.36311665 -6.16044994 42.8620098 -6.16796875 38.15234375 C-6.17129715 37.41802628 -6.17462555 36.6837088 -6.17805481 35.92713928 C-6.18309183 34.38331728 -6.18546414 32.83948451 -6.18530273 31.2956543 C-6.18749668 28.94106158 -6.20570652 26.58693237 -6.22460938 24.23242188 C-6.22754255 22.72656409 -6.22952785 21.2207041 -6.23046875 19.71484375 C-6.23765427 19.01576401 -6.24483978 18.31668427 -6.25224304 17.59642029 C-6.21937915 10.53617078 -3.4755763 5.90847971 0 0 Z " fill="#EBF6F9" transform="translate(6,76)"/>
<path d="M0 0 C0.66 0.33 1.32 0.66 2 1 C1.8125 2.75 1.8125 2.75 1 5 C-0.2065625 5.9590625 -0.2065625 5.9590625 -1.4375 6.9375 C-4.35918502 9.28910014 -4.90695263 10.46716981 -6 14 C-6.36356069 17.2867057 -6.36356069 17.2867057 -6.4140625 20.83203125 C-6.47207031 22.77045898 -6.47207031 22.77045898 -6.53125 24.74804688 C-6.56270014 26.10285995 -6.59394761 27.45767775 -6.625 28.8125 C-6.6632175 30.18687272 -6.7022714 31.56122244 -6.7421875 32.93554688 C-6.83635404 36.29022989 -6.921982 39.64490893 -7 43 C-9.64 43 -12.28 43 -15 43 C-15 42.67 -15 42.34 -15 42 C-12.69 42 -10.38 42 -8 42 C-8.13984456 37.49979316 -8.28794995 32.99989394 -8.4375 28.5 C-8.47681641 27.2315625 -8.51613281 25.963125 -8.55664062 24.65625 C-8.76921362 18.37717086 -9.06615589 12.21516419 -10 6 C-9.34 6 -8.68 6 -8 6 C-8 5.34 -8 4.68 -8 4 C-6.35 4 -4.7 4 -3 4 C-3.33 3.34 -3.66 2.68 -4 2 C-2.68 2 -1.36 2 0 2 C0 1.34 0 0.68 0 0 Z " fill="#C6E7F7" transform="translate(125,87)"/>
<path d="M0 0 C0 0.33 0 0.66 0 1 C5.94 1.33 11.88 1.66 18 2 C18 2.33 18 2.66 18 3 C13.71 3 9.42 3 5 3 C5 3.66 5 4.32 5 5 C7.64 5.33 10.28 5.66 13 6 C13 6.33 13 6.66 13 7 C5.08 7.33 -2.84 7.66 -11 8 C-11 4 -11 4 -9.4375 1.75 C-6.18780284 -0.58311591 -3.90813239 -0.30062557 0 0 Z " fill="#F9FDFC" transform="translate(107,8)"/>
<path d="M0 0 C0.99 0.33 1.98 0.66 3 1 C3 10.57 3 20.14 3 30 C2.01 30 1.02 30 0 30 C0 20.1 0 10.2 0 0 Z " fill="#E0EFFC" transform="translate(143,99)"/>
<path d="M0 0 C0.66 0 1.32 0 2 0 C1.44600499 3.67724226 0.16350607 5.06161222 -2.6875 7.375 C-5.40944626 9.62462285 -7.8751641 11.88828789 -10.25 14.5 C-11.61125 15.7375 -11.61125 15.7375 -13 17 C-15.171875 16.65625 -15.171875 16.65625 -17 16 C-16.38125 15.7525 -15.7625 15.505 -15.125 15.25 C-12.61104784 13.77120461 -12.1465949 12.62078835 -11 10 C-10.34 9.34 -9.68 8.68 -9 8 C-9.32041397 5.39719432 -9.32041397 5.39719432 -10 3 C-8.72125 2.87625 -7.4425 2.7525 -6.125 2.625 C-2.65209064 2.30957601 -2.65209064 2.30957601 0 0 Z " fill="#F2F8F8" transform="translate(35,37)"/>
<path d="M0 0 C0.78375 0.639375 1.5675 1.27875 2.375 1.9375 C5.67344012 4.52913152 7.5291233 5.15291233 11.625 5.5625 C12.44226563 5.64628906 13.25953125 5.73007813 14.1015625 5.81640625 C14.72804687 5.87699219 15.35453125 5.93757813 16 6 C12.99382731 9.00617269 10.17618402 8.59585316 6 9 C6 9.99 6 10.98 6 12 C7.093125 11.95875 8.18625 11.9175 9.3125 11.875 C13 12 13 12 16 14 C5.44191344 14.3690205 5.44191344 14.3690205 1 12 C1 11.34 1 10.68 1 10 C1.99 9.34 2.98 8.68 4 8 C4 7.34 4 6.68 4 6 C2.35 5.67 0.7 5.34 -1 5 C-0.34 4.67 0.32 4.34 1 4 C1 3.34 1 2.68 1 2 C0.34 1.67 -0.32 1.34 -1 1 C-0.67 0.67 -0.34 0.34 0 0 Z " fill="#C8E3F8" transform="translate(160,117)"/>
<path d="M0 0 C1.22589844 0.15275391 1.22589844 0.15275391 2.4765625 0.30859375 C3.41628906 0.43427734 3.41628906 0.43427734 4.375 0.5625 C2.21865964 2.71884036 0.00401288 4.04043991 -2.625 5.5625 C-2.295 6.2225 -1.965 6.8825 -1.625 7.5625 C-2.945 7.2325 -4.265 6.9025 -5.625 6.5625 C-5.295 6.8925 -4.965 7.2225 -4.625 7.5625 C-4.295 8.2225 -3.965 8.8825 -3.625 9.5625 C-5.275 9.2325 -6.925 8.9025 -8.625 8.5625 C-9.3125 6.25 -9.3125 6.25 -9.625 3.5625 C-6.82009569 -0.17737241 -4.45275348 -0.57249688 0 0 Z " fill="#209BEB" transform="translate(57.625,92.4375)"/>
<path d="M0 0 C0.66 0.33 1.32 0.66 2 1 C2 3.64 2 6.28 2 9 C2.33 9 2.66 9 3 9 C3 10.98 3 12.96 3 15 C4.32 15.33 5.64 15.66 7 16 C6.401875 16.144375 5.80375 16.28875 5.1875 16.4375 C3.43849596 16.8872439 1.71322977 17.42892341 0 18 C-2.50777727 14.23833409 -2.2934072 12.47445973 -2 8 C-1.44938665 5.28490659 -0.74975688 2.67100888 0 0 Z " fill="#1F82EF" transform="translate(26,194)"/>
<path d="M0 0 C0.66 0 1.32 0 2 0 C2.25528048 3.58197404 2.47465688 7.16527379 2.6875 10.75 C2.76033203 11.76578125 2.83316406 12.7815625 2.90820312 13.828125 C2.96298828 14.8078125 3.01777344 15.7875 3.07421875 16.796875 C3.13182373 17.69760742 3.18942871 18.59833984 3.2487793 19.52636719 C2.94943764 22.50274566 1.965641 23.79848208 0 26 C-1.31567432 17.28365762 -1.54659574 8.69960102 0 0 Z " fill="#269FF6" transform="translate(2,94)"/>
<path d="M0 0 C-0.99 0.66 -1.98 1.32 -3 2 C-2.67 2.66 -2.34 3.32 -2 4 C-9.31129316 5.65538713 -14.2011529 3.9120062 -21 1 C-21 0.67 -21 0.34 -21 0 C-13.81949816 -0.71148265 -7.12971149 -1.25818438 0 0 Z " fill="#148DF3" transform="translate(184,131)"/>
<path d="M0 0 C0 2.31 0 4.62 0 7 C-4.62 7 -9.24 7 -14 7 C-11.49284109 4.49284109 -10.04550521 3.3179486 -7 1.8125 C-6.319375 1.46832031 -5.63875 1.12414062 -4.9375 0.76953125 C-3 0 -3 0 0 0 Z " fill="#1DB7F5" transform="translate(64,25)"/>
<path d="M0 0 C0 2.97 0 5.94 0 9 C-4 10 -4 10 -8 10 C-8 9.34 -8 8.68 -8 8 C-9.65 8.33 -11.3 8.66 -13 9 C-2 0 -2 0 0 0 Z " fill="#EFF6FA" transform="translate(192,173)"/>
<path d="M0 0 C2.64 0 5.28 0 8 0 C8.33 1.32 8.66 2.64 9 4 C10.65 3.01 12.3 2.02 14 1 C14 2.65 14 4.3 14 6 C14.99 6.33 15.98 6.66 17 7 C12.25 10 12.25 10 10 10 C9.67 8.68 9.34 7.36 9 6 C8.34 6 7.68 6 7 6 C7 4.35 7 2.7 7 1 C5.68 1.33 4.36 1.66 3 2 C3 4.64 3 7.28 3 10 C2.67 10 2.34 10 2 10 C2 7.03 2 4.06 2 1 C1.34 0.67 0.68 0.34 0 0 Z " fill="#C8E7F8" transform="translate(81,86)"/>
<path d="M0 0 C1.32 0.66 2.64 1.32 4 2 C3.46588214 10.85898937 1.85710087 19.34520917 0 28 C-0.33 28 -0.66 28 -1 28 C-1 22.06 -1 16.12 -1 10 C-0.67 10.66 -0.34 11.32 0 12 C0.66 12 1.32 12 2 12 C1.44687265 7.97007218 0.8441938 3.97977076 0 0 Z " fill="#E9F3FA" transform="translate(27,166)"/>
<path d="M0 0 C2.16926659 3.25389988 2.24080049 4.13395957 2.1953125 7.88671875 C2.18886719 8.82451172 2.18242187 9.76230469 2.17578125 10.72851562 C2.15902344 11.70498047 2.14226562 12.68144531 2.125 13.6875 C2.11597656 14.67556641 2.10695312 15.66363281 2.09765625 16.68164062 C2.0740843 19.12133765 2.04118022 21.56054697 2 24 C1.67 24 1.34 24 1 24 C0.80664062 23.20335938 0.61328125 22.40671875 0.4140625 21.5859375 C-1.51794536 13.7134296 -1.51794536 13.7134296 -4 6 C-3.34 6 -2.68 6 -2 6 C-1.34 4.02 -0.68 2.04 0 0 Z " fill="#F2F9FC" transform="translate(223,68)"/>
<path d="M0 0 C2.5625 2.1875 2.5625 2.1875 5 5 C4.8125 7.8125 4.8125 7.8125 4 10 C1.69 9.67 -0.62 9.34 -3 9 C-3 6.36 -3 3.72 -3 1 C-2.01 0.67 -1.02 0.34 0 0 Z " fill="#1EA9F3" transform="translate(211,62)"/>
<path d="M0 0 C0.68707555 2.49064888 1 4.37886292 1 7 C-2 9 -2 9 -4.125 9.875 C-6.20076457 10.84957521 -6.20076457 10.84957521 -6.75 13.125 C-6.8325 13.74375 -6.915 14.3625 -7 15 C-7.99 14.34 -8.98 13.68 -10 13 C-10.66 12.67 -11.32 12.34 -12 12 C-10.71034824 10.62437146 -9.37310707 9.29233607 -8 8 C-7.34 8 -6.68 8 -6 8 C-5.7525 7.4225 -5.505 6.845 -5.25 6.25 C-3.83316683 3.6997003 -2.12372463 1.98214299 0 0 Z " fill="#ECF5F6" transform="translate(206,159)"/>
<path d="M0 0 C1.41898766 2.64877696 2.31911019 5.08014819 3 8 C-2.36095277 6.41078475 -7.70843973 4.81027062 -13 3 C-9.64549207 -0.35450793 -4.56739027 0 0 0 Z " fill="#F8F7FB" transform="translate(163,17)"/>
<path d="M0 0 C1.73540039 0.07250977 1.73540039 0.07250977 3.50585938 0.14648438 C5.30313477 0.2305957 5.30313477 0.2305957 7.13671875 0.31640625 C8.35423828 0.36861328 9.57175781 0.42082031 10.82617188 0.47460938 C13.82579854 0.60400504 16.82506881 0.73896073 19.82421875 0.87890625 C19.82421875 1.20890625 19.82421875 1.53890625 19.82421875 1.87890625 C14.05159378 2.70826856 8.4648335 3.03321781 2.63671875 3.00390625 C1.85619141 3.00777344 1.07566406 3.01164063 0.27148438 3.015625 C-3.67752033 3.00892609 -7.32060285 2.85235811 -11.17578125 1.87890625 C-11.17578125 1.54890625 -11.17578125 1.21890625 -11.17578125 0.87890625 C-7.34032084 -0.04197632 -3.93476864 -0.17444787 0 0 Z " fill="#2183EC" transform="translate(110.17578125,196.12109375)"/>
<path d="M0 0 C0.33 0 0.66 0 1 0 C1 8.91 1 17.82 1 27 C0.01 27.33 -0.98 27.66 -2 28 C-2.73323796 30.01508358 -2.73323796 30.01508358 -3 32 C-3.98120464 28.94736336 -3.98120464 27.05263664 -3 24 C-2.34 24 -1.68 24 -1 24 C-0.67 16.08 -0.34 8.16 0 0 Z " fill="#1191F6" transform="translate(108,104)"/>
<path d="M0 0 C0.33 1.65 0.66 3.3 1 5 C1.66 5 2.32 5 3 5 C3 5.66 3 6.32 3 7 C1.02 7.33 -0.96 7.66 -3 8 C-3 6.68 -3 5.36 -3 4 C-4.65 3.67 -6.3 3.34 -8 3 C-8 2.34 -8 1.68 -8 1 C-4.93251126 -0.86240388 -3.40254489 -1.2151946 0 0 Z " fill="#DBEFF8" transform="translate(47,117)"/>
<path d="M0 0 C0.33 0 0.66 0 1 0 C1 5.61 1 11.22 1 17 C0.01 17.33 -0.98 17.66 -2 18 C-2.99 17.34 -3.98 16.68 -5 16 C-3.35 10.72 -1.7 5.44 0 0 Z " fill="#F2F8F8" transform="translate(224,122)"/>
<path d="M0 0 C1.65 0 3.3 0 5 0 C4.34 2.64 3.68 5.28 3 8 C4.65 8.33 6.3 8.66 8 9 C8 9.33 8 9.66 8 10 C4.28400809 10.20086443 3.22791555 10.1519437 0 8 C0 9.98 0 11.96 0 14 C-1.32 13.34 -2.64 12.68 -4 12 C-4 10.68 -4 9.36 -4 8 C-3.34 8.33 -2.68 8.66 -2 9 C-1.67 8.34 -1.34 7.68 -1 7 C-0.34 7 0.32 7 1 7 C0.67 4.69 0.34 2.38 0 0 Z " fill="#C2E7FC" transform="translate(160,93)"/>
<path d="M0 0 C0.66 0.66 1.32 1.32 2 2 C-1.63 2 -5.26 2 -9 2 C-9.66 3.98 -10.32 5.96 -11 8 C-12.32 7.67 -13.64 7.34 -15 7 C-14.13172876 4.32283036 -13.24615667 2.295388 -11.4375 0.125 C-7.67182388 -1.61300436 -3.96316959 -1.01757057 0 0 Z " fill="#2AA1EC" transform="translate(134,93)"/>
<path d="M0 0 C2.475 0.495 2.475 0.495 5 1 C4.34 2.32 3.68 3.64 3 5 C3.66 5 4.32 5 5 5 C5.66 3.68 6.32 2.36 7 1 C7.125 4.375 7.125 4.375 7 8 C6.34 8.66 5.68 9.32 5 10 C5.66 10.66 6.32 11.32 7 12 C6.67 12.99 6.34 13.98 6 15 C0.41609774 6.96316924 0.41609774 6.96316924 1 2 C0.67 1.34 0.34 0.68 0 0 Z " fill="#1D8AEB" transform="translate(9,136)"/>
<path d="M0 0 C0.99 0.33 1.98 0.66 3 1 C2.88590407 2.45922693 2.75834456 3.91740598 2.625 5.375 C2.55539063 6.18710938 2.48578125 6.99921875 2.4140625 7.8359375 C2 10 2 10 0 12 C0 11.01 0 10.02 0 9 C-0.66 9 -1.32 9 -2 9 C-2 7.35 -2 5.7 -2 4 C-2.66 4 -3.32 4 -4 4 C-3.67 3.01 -3.34 2.02 -3 1 C-2.01 1.33 -1.02 1.66 0 2 C0 1.34 0 0.68 0 0 Z " fill="#188FEF" transform="translate(221,120)"/>
<path d="M0 0 C0.66 0.66 1.32 1.32 2 2 C-6.47849799 3.58819127 -13.64947979 4.5013079 -22 2 C-22 1.67 -22 1.34 -22 1 C-19.45847098 0.83096719 -16.91681012 0.66470573 -14.375 0.5 C-13.30572266 0.42845703 -13.30572266 0.42845703 -12.21484375 0.35546875 C-3.45164078 -0.20730575 -3.45164078 -0.20730575 0 0 Z " fill="#207BF7" transform="translate(142,194)"/>
<path d="M0 0 C-2.55068845 2.35448165 -3.71017358 2.98327924 -7.25 3.1875 C-8.1575 3.125625 -9.065 3.06375 -10 3 C-10 3.99 -10 4.98 -10 6 C-11.32 5.67 -12.64 5.34 -14 5 C-14 4.34 -14 3.68 -14 3 C-14.66 2.67 -15.32 2.34 -16 2 C-10.23826317 -1.06475363 -6.37259801 -1.19937786 0 0 Z " fill="#EFF4F7" transform="translate(80,194)"/>
<path d="M0 0 C3.34252724 -0.07427838 5.8035914 -0.06546953 9 1 C9 3.64 9 6.28 9 9 C5.02363296 6.90136184 2.60444383 4.66551353 0 1 C0 0.67 0 0.34 0 0 Z " fill="#1E86F0" transform="translate(23,160)"/>
<path d="M0 0 C0.33 0 0.66 0 1 0 C1.19573608 1.43640171 1.38127816 2.87419504 1.5625 4.3125 C1.66691406 5.11300781 1.77132812 5.91351563 1.87890625 6.73828125 C2 9 2 9 1 12 C-1.5625 13.1875 -1.5625 13.1875 -4 14 C-3.01 14.66 -2.02 15.32 -1 16 C-2.98 16 -4.96 16 -7 16 C-6.67 15.01 -6.34 14.02 -6 13 C-6.99 12.67 -7.98 12.34 -9 12 C-8.34 12 -7.68 12 -7 12 C-7 11.34 -7 10.68 -7 10 C-4.69 10 -2.38 10 0 10 C0 6.7 0 3.4 0 0 Z " fill="#198DEB" transform="translate(89,120)"/>
<path d="M0 0 C0.99 0.33 1.98 0.66 3 1 C2.67 1.66 2.34 2.32 2 3 C-0.5625 3.625 -0.5625 3.625 -3 4 C-2.67 4.66 -2.34 5.32 -2 6 C-1.93049459 7.54023996 -1.91547643 9.08334988 -1.9375 10.625 C-1.94652344 11.44226563 -1.95554687 12.25953125 -1.96484375 13.1015625 C-1.97644531 13.72804688 -1.98804687 14.35453125 -2 15 C-2.99 14.67 -3.98 14.34 -5 14 C-4.67 11.69 -4.34 9.38 -4 7 C-6.31 6.01 -8.62 5.02 -11 4 C-7.54941314 1.69960876 -5.05904498 1.5261725 -1 1 C-0.67 0.67 -0.34 0.34 0 0 Z " fill="#C8E9FB" transform="translate(69,108)"/>
<path d="M0 0 C2.65657091 2.65657091 3.00103814 5.03114408 3.125 8.75 C3.08375 9.8225 3.0425 10.895 3 12 C2.34 11.67 1.68 11.34 1 11 C0.79375 10.236875 0.5875 9.47375 0.375 8.6875 C-1.66762972 4.69508736 -4.98124867 3.67292207 -9 2 C-9 1.67 -9 1.34 -9 1 C-2.25 -1.125 -2.25 -1.125 0 0 Z " fill="#2DA6F0" transform="translate(71,84)"/>
<path d="M0 0 C2 1 2 1 2.8515625 3.28515625 C3.10679687 4.20167969 3.36203125 5.11820312 3.625 6.0625 C3.88539063 6.98160156 4.14578125 7.90070313 4.4140625 8.84765625 C4.60742188 9.55792969 4.80078125 10.26820312 5 11 C4.34 11.66 3.68 12.32 3 13 C2.01 13 1.02 13 0 13 C0.33 10.69 0.66 8.38 1 6 C0.34 6 -0.32 6 -1 6 C-0.67 4.02 -0.34 2.04 0 0 Z " fill="#21A4F1" transform="translate(218,74)"/>
<path d="M0 0 C1.65 1.65 3.3 3.3 5 5 C3.35 6.32 1.7 7.64 0 9 C-0.99 8.01 -1.98 7.02 -3 6 C-2.01 4.02 -1.02 2.04 0 0 Z " fill="#ECF6FA" transform="translate(20,158)"/>
<path d="M0 0 C1.32 0.33 2.64 0.66 4 1 C5.00821159 3.68856424 5.22736824 5.41703215 4.17578125 8.11328125 C3.16604698 10.10794931 2.11893353 12.0646772 1 14 C0.67 14 0.34 14 0 14 C-0.1255814 8.4744186 -0.1255814 8.4744186 0.5625 5.875 C1.09000994 3.6142431 0.70227228 2.18484708 0 0 Z " fill="#1A8EEF" transform="translate(216,130)"/>
<path d="M0 0 C1.65 0.33 3.3 0.66 5 1 C5 1.66 5 2.32 5 3 C8.465 2.505 8.465 2.505 12 2 C11.67 2.99 11.34 3.98 11 5 C9.23086176 5.22226864 7.45955629 5.42733873 5.6875 5.625 C4.70136719 5.74101563 3.71523437 5.85703125 2.69921875 5.9765625 C0 6 0 6 -3 4 C-2.505 3.525625 -2.01 3.05125 -1.5 2.5625 C0.11542197 1.24076302 0.11542197 1.24076302 0 0 Z " fill="#20A6F8" transform="translate(163,80)"/>
<path d="M0 0 C0.99 0.66 1.98 1.32 3 2 C1.76600937 3.36877116 0.51219377 4.71969166 -0.75 6.0625 C-1.79414063 7.19365234 -1.79414063 7.19365234 -2.859375 8.34765625 C-5 10 -5 10 -7.265625 9.74609375 C-7.83796875 9.49988281 -8.4103125 9.25367188 -9 9 C-8.38125 8.7525 -7.7625 8.505 -7.125 8.25 C-4.5927804 6.76045906 -4.19281342 5.62418952 -3 3 C-1.375 1.25 -1.375 1.25 0 0 Z " fill="#E3F5F6" transform="translate(27,44)"/>
<path d="M0 0 C2.64 0.33 5.28 0.66 8 1 C8 1.33 8 1.66 8 2 C5.36 2 2.72 2 0 2 C0 1.34 0 0.68 0 0 Z M3.125 2.9375 C4.21167969 3.22947266 4.21167969 3.22947266 5.3203125 3.52734375 C5.87460938 3.68332031 6.42890625 3.83929688 7 4 C6.67 4.99 6.34 5.98 6 7 C4.68528432 6.71848913 3.37324233 6.42446661 2.0625 6.125 C0.96615234 5.88136719 0.96615234 5.88136719 -0.15234375 5.6328125 C-2 5 -2 5 -3 3 C-0.45297384 1.72648692 0.4282945 2.19808075 3.125 2.9375 Z " fill="#1F8FED" transform="translate(109,129)"/>
<path d="M0 0 C0.33 0.99 0.66 1.98 1 3 C1.66 3.33 2.32 3.66 3 4 C3 4.66 3 5.32 3 6 C1.4221875 6.433125 1.4221875 6.433125 -0.1875 6.875 C-3.87975538 7.86834224 -3.87975538 7.86834224 -6.75 9.25 C-7.4925 9.4975 -8.235 9.745 -9 10 C-9.99 9.34 -10.98 8.68 -12 8 C-10.14375 7.4121875 -10.14375 7.4121875 -8.25 6.8125 C-4.29461634 5.35377695 -2.32850657 3.58978096 0 0 Z " fill="#2695EA" transform="translate(73,122)"/>
<path d="M0 0 C1.5625 1.75 1.5625 1.75 3 4 C2.6875 6.25 2.6875 6.25 2 8 C-0.97 7.505 -0.97 7.505 -4 7 C-2.68 4.69 -1.36 2.38 0 0 Z " fill="#EBF5F8" transform="translate(211,152)"/>
<path d="M0 0 C5.75 0.75 5.75 0.75 8 3 C7.38125 3.2475 6.7625 3.495 6.125 3.75 C3.64931313 5.20628639 3.04874998 6.37812506 2 9 C0.02 8.34 -1.96 7.68 -4 7 C-4 6.67 -4 6.34 -4 6 C-2.02 6 -0.04 6 2 6 C1.49396008 3.83125748 1.00016187 2.00032373 0 0 Z " fill="#C7E8FA" transform="translate(176,105)"/>
<path d="M0 0 C7.92 0.33 15.84 0.66 24 1 C24 1.33 24 1.66 24 2 C16.08 2.33 8.16 2.66 0 3 C0 2.01 0 1.02 0 0 Z " fill="#D8F2FB" transform="translate(96,13)"/>
<path d="M0 0 C3.0625 0.1875 3.0625 0.1875 5.0625 2.1875 C2.35370665 3.54189668 0.05316732 3.25251451 -2.9375 3.1875 C-2.9375 3.8475 -2.9375 4.5075 -2.9375 5.1875 C-0.6275 5.1875 1.6825 5.1875 4.0625 5.1875 C4.0625 5.5175 4.0625 5.8475 4.0625 6.1875 C1.4225 6.1875 -1.2175 6.1875 -3.9375 6.1875 C-3.980221 4.52138095 -3.97813832 2.85367115 -3.9375 1.1875 C-2.9375 0.1875 -2.9375 0.1875 0 0 Z " fill="#E2F0F9" transform="translate(98.9375,85.8125)"/>
<path d="M0 0 C0.33 0 0.66 0 1 0 C1 1.98 1 3.96 1 6 C1.99 6 2.98 6 4 6 C4 4.35 4 2.7 4 1 C4.33 1 4.66 1 5 1 C5 2.98 5 4.96 5 7 C6.32 7.33 7.64 7.66 9 8 C8.401875 8.144375 7.80375 8.28875 7.1875 8.4375 C5.43849596 8.8872439 3.71322977 9.42892341 2 10 C-0.4294516 6.3558226 -0.16179575 4.28758728 0 0 Z " fill="#2E85ED" transform="translate(24,202)"/>
<path d="M0 0 C1.17219543 0.78345715 2.33763668 1.57702836 3.5 2.375 C4.47453125 3.03628906 4.47453125 3.03628906 5.46875 3.7109375 C5.9740625 4.13632812 6.479375 4.56171875 7 5 C7 5.66 7 6.32 7 7 C4.69 7 2.38 7 0 7 C0 4.69 0 2.38 0 0 Z " fill="#1FB1F2" transform="translate(192,41)"/>
<path d="M0 0 C-2.15266842 2.15266842 -3.84773744 2.93474462 -6.625 4.125 C-7.44226562 4.47820313 -8.25953125 4.83140625 -9.1015625 5.1953125 C-9.72804687 5.46085937 -10.35453125 5.72640625 -11 6 C-11 5.34 -11 4.68 -11 4 C-11.66 3.67 -12.32 3.34 -13 3 C-8.37802694 0.78145293 -5.23175837 -0.38281159 0 0 Z " fill="#EBF5FB" transform="translate(61,25)"/>
<path d="M0 0 C1.65 0.33 3.3 0.66 5 1 C5.33 2.98 5.66 4.96 6 7 C3 7 3 7 0.8125 5 C0.214375 4.34 -0.38375 3.68 -1 3 C-0.67 2.01 -0.34 1.02 0 0 Z " fill="#1D8AF0" transform="translate(18,152)"/>
<path d="M0 0 C3.63 0.33 7.26 0.66 11 1 C6.60171741 3.1991413 3.81449408 3.51855059 -1 4 C-0.67 2.68 -0.34 1.36 0 0 Z " fill="#D0E9F9" transform="translate(52,103)"/>
<path d="M0 0 C0.66 0 1.32 0 2 0 C1.67 8.58 1.34 17.16 1 26 C0.67 26 0.34 26 0 26 C-0.19583915 21.85451585 -0.38027842 17.7086033 -0.5625 13.5625 C-0.61857422 12.37849609 -0.67464844 11.19449219 -0.73242188 9.97460938 C-0.78076172 8.84990234 -0.82910156 7.72519531 -0.87890625 6.56640625 C-0.9260376 5.52427979 -0.97316895 4.48215332 -1.02172852 3.40844727 C-1 1 -1 1 0 0 Z " fill="#D6F3FD" transform="translate(113,102)"/>
<path d="M0 0 C3.96 0 7.92 0 12 0 C12.66 1.98 13.32 3.96 14 6 C13.34 6 12.68 6 12 6 C12 5.34 12 4.68 12 4 C11.34 4 10.68 4 10 4 C10 3.34 10 2.68 10 2 C6.7 2 3.4 2 0 2 C0 1.34 0 0.68 0 0 Z " fill="#E4F1F9" transform="translate(168,87)"/>
<path d="M0 0 C4.62 0.66 9.24 1.32 14 2 C14 2.33 14 2.66 14 3 C9.23692563 3.95261487 4.8333472 4.08333357 0 4 C0 2.68 0 1.36 0 0 Z " fill="#E7F1F8" transform="translate(82,195)"/>
<path d="M0 0 C0.66 0.33 1.32 0.66 2 1 C1.690625 1.5775 1.38125 2.155 1.0625 2.75 C0.07416636 4.84294184 -0.5168613 6.74535275 -1 9 C-2.65 7.35 -4.3 5.7 -6 4 C-5.34 3.67 -4.68 3.34 -4 3 C-3.67 2.34 -3.34 1.68 -3 1 C-2.34 1 -1.68 1 -1 1 C-0.67 0.67 -0.34 0.34 0 0 Z " fill="#219CF9" transform="translate(165,112)"/>
<path d="M0 0 C3.12759134 2.42136104 4.30958787 4.28578182 4.875 8.125 C4.91625 9.40375 4.9575 10.6825 5 12 C4.34 12.66 3.68 13.32 3 14 C2.34 12.68 1.68 11.36 1 10 C1.66 10 2.32 10 3 10 C2.01 6.7 1.02 3.4 0 0 Z " fill="#C7EAFB" transform="translate(141,88)"/>
<path d="M0 0 C2.41793589 1.20896794 2.79103206 1.58206411 4 4 C3.360625 4.103125 2.72125 4.20625 2.0625 4.3125 C1.381875 4.539375 0.70125 4.76625 0 5 C-0.33 5.99 -0.66 6.98 -1 8 C-1.99 8 -2.98 8 -4 8 C-4.33 8.66 -4.66 9.32 -5 10 C-4.49701212 5.59885603 -2.91227269 3.28804981 0 0 Z " fill="#17AAEF" transform="translate(17,60)"/>
<path d="M0 0 C1.01382963 3.6208201 1.49897691 7.27811418 2 11 C0.68 10.67 -0.64 10.34 -2 10 C-2.25 3.375 -2.25 3.375 0 0 Z " fill="#D3EFFB" transform="translate(156,91)"/>
<path d="M0 0 C0.80050781 0.22042969 1.60101563 0.44085938 2.42578125 0.66796875 C3.23402344 0.88066406 4.04226562 1.09335938 4.875 1.3125 C5.79732422 1.58126953 5.79732422 1.58126953 6.73828125 1.85546875 C6.73828125 2.18546875 6.73828125 2.51546875 6.73828125 2.85546875 C3.76828125 2.85546875 0.79828125 2.85546875 -2.26171875 2.85546875 C-2.26171875 3.84546875 -2.26171875 4.83546875 -2.26171875 5.85546875 C-3.25171875 6.18546875 -4.24171875 6.51546875 -5.26171875 6.85546875 C-5.26171875 2.85546875 -5.26171875 2.85546875 -4.0546875 1.0546875 C-2.26171875 -0.14453125 -2.26171875 -0.14453125 0 0 Z " fill="#209FED" transform="translate(97.26171875,93.14453125)"/>
<path d="M0 0 C-2.6860286 1.79068573 -4.6626589 2.66055791 -7.6875 3.625 C-8.49574219 3.88539062 -9.30398437 4.14578125 -10.13671875 4.4140625 C-10.75160156 4.60742188 -11.36648437 4.80078125 -12 5 C-12.33 4.34 -12.66 3.68 -13 3 C-8.90588383 -1.48403199 -5.77578483 -0.98079365 0 0 Z " fill="#EAF7F9" transform="translate(77,19)"/>
<path d="M0 0 C-1 3 -1 3 -3.1875 4.1875 C-6.25390311 5.07334979 -8.82438155 5.14770318 -12 5 C-12 4.34 -12 3.68 -12 3 C-10.37604003 2.49663233 -8.75079459 1.99741024 -7.125 1.5 C-6.22007812 1.2215625 -5.31515625 0.943125 -4.3828125 0.65625 C-2 0 -2 0 0 0 Z " fill="#157FF4" transform="translate(169,185)"/>
<path d="M0 0 C2.0625 1.75 2.0625 1.75 4 4 C3.81358559 6.98263061 2.39977879 9.38707959 1 12 C0.855625 10.88625 0.71125 9.7725 0.5625 8.625 C0.21627965 5.17857953 0.21627965 5.17857953 -1 3 C-1.66 2.67 -2.32 2.34 -3 2 C-2.01 2 -1.02 2 0 2 C0 1.34 0 0.68 0 0 Z " fill="#CBEDFD" transform="translate(184,108)"/>
<path d="M0 0 C0.99 0.33 1.98 0.66 3 1 C2.67 3.64 2.34 6.28 2 9 C0.68 8.67 -0.64 8.34 -2 8 C-1.34 5.36 -0.68 2.72 0 0 Z " fill="#1EA7F7" transform="translate(5,82)"/>
<path d="M0 0 C2.31 0.33 4.62 0.66 7 1 C7.33 1.99 7.66 2.98 8 4 C5.39417629 4.93065133 4.35801776 5.14917407 1.75 4.0625 C1.1725 3.711875 0.595 3.36125 0 3 C0 2.01 0 1.02 0 0 Z " fill="#29A6F7" transform="translate(136,83)"/>
<path d="M0 0 C0.66 0.33 1.32 0.66 2 1 C1.34 2.65 0.68 4.3 0 6 C-2.64 5.67 -5.28 5.34 -8 5 C-5.45378681 2.99940392 -3.01962385 1.20784954 0 0 Z " fill="#E7F0F6" transform="translate(55,201)"/>
<path d="M0 0 C4.39158329 1.4638611 4.87947433 3.97831338 7 8 C6.01 8.33 5.02 8.66 4 9 C3.34 8.67 2.68 8.34 2 8 C1.4375 6.1875 1.4375 6.1875 1 4 C0.814375 3.2575 0.62875 2.515 0.4375 1.75 C0.293125 1.1725 0.14875 0.595 0 0 Z " fill="#1E94EB" transform="translate(37,119)"/>
<path d="M0 0 C0.33 0.66 0.66 1.32 1 2 C1.99 2.33 2.98 2.66 4 3 C4 3.66 4 4.32 4 5 C5.98 5 7.96 5 10 5 C10 5.33 10 5.66 10 6 C8.56344146 6.08131463 7.1255517 6.13933559 5.6875 6.1875 C4.48673828 6.23970703 4.48673828 6.23970703 3.26171875 6.29296875 C0.52148416 5.93801608 -0.29171079 5.10633718 -2 3 C-1.34 2.01 -0.68 1.02 0 0 Z " fill="#1191EE" transform="translate(166,117)"/>
<path d="M0 0 C2.3828125 0.2421875 2.3828125 0.2421875 5.125 0.875 C6.03507813 1.07867187 6.94515625 1.28234375 7.8828125 1.4921875 C8.58148438 1.65976563 9.28015625 1.82734375 10 2 C10 2.99 10 3.98 10 5 C5.6822542 4.49202991 1.96697886 3.80317221 -2 2 C-1.34 1.34 -0.68 0.68 0 0 Z " fill="#CBE9FA" transform="translate(162,106)"/>
<path d="M0 0 C-0.33 0.99 -0.66 1.98 -1 3 C-4.3 3.33 -7.6 3.66 -11 4 C-11.33 3.34 -11.66 2.68 -12 2 C-10.56342755 1.66269158 -9.12569907 1.33030409 -7.6875 1 C-6.88699219 0.814375 -6.08648437 0.62875 -5.26171875 0.4375 C-3 0 -3 0 0 0 Z " fill="#E2EEF4" transform="translate(69,107)"/>
<path d="M0 0 C1.85625 0.061875 1.85625 0.061875 3.75 0.125 C2.54296875 1.64453125 2.54296875 1.64453125 0.75 3.125 C-1.51171875 3.19921875 -1.51171875 3.19921875 -3.9375 2.8125 C-5.14986328 2.63267578 -5.14986328 2.63267578 -6.38671875 2.44921875 C-7.00160156 2.34222656 -7.61648437 2.23523438 -8.25 2.125 C-5.3504339 0.46623921 -3.33364791 -0.1111216 0 0 Z " fill="#17BFF3" transform="translate(96.25,15.875)"/>
<path d="M0 0 C1.875 0.1875 1.875 0.1875 4 1 C5.25 3.5625 5.25 3.5625 6 6 C3.03824877 5.38722388 1.61941217 4.74627478 -1 3 C-0.67 2.01 -0.34 1.02 0 0 Z " fill="#ECF7F8" transform="translate(186,33)"/>
<path d="M0 0 C3.05214016 0.36335002 4.35762056 1.29705161 6.625 3.3125 C2.33200357 4.57514601 -0.25331311 3.94200412 -4.375 2.3125 C-2.375 0.3125 -2.375 0.3125 0 0 Z " fill="#15BBF3" transform="translate(84.375,17.6875)"/>
<path d="M0 0 C0.33 0.99 0.66 1.98 1 3 C-1.35968744 5.09749995 -2.54616994 5.96905704 -5.75 6.1875 C-6.86375 6.0946875 -6.86375 6.0946875 -8 6 C-6.75 4.5 -6.75 4.5 -5 3 C-3.68 3 -2.36 3 -1 3 C-0.67 2.01 -0.34 1.02 0 0 Z " fill="#1490F7" transform="translate(92,129)"/>
<path d="M0 0 C-0.66 0.66 -1.32 1.32 -2 2 C-2.99 2 -3.98 2 -5 2 C-5.33 3.98 -5.66 5.96 -6 8 C-6.66 8 -7.32 8 -8 8 C-7.34 6.02 -6.68 4.04 -6 2 C-6.99 1.67 -7.98 1.34 -9 1 C-6.04335481 -0.4783226 -3.25770263 -0.06032783 0 0 Z " fill="#1DA4FB" transform="translate(132,94)"/>
<path d="M0 0 C2.4375 0.625 2.4375 0.625 5 2 C5.8125 5.125 5.8125 5.125 6 8 C4.68 7.67 3.36 7.34 2 7 C1.855625 6.401875 1.71125 5.80375 1.5625 5.1875 C1.1127561 3.43849596 0.57107659 1.71322977 0 0 Z " fill="#26A3EA" transform="translate(184,88)"/>
<path d="M0 0 C1.65 1.65 3.3 3.3 5 5 C4.67 5.66 4.34 6.32 4 7 C3.01 7 2.02 7 1 7 C0.67 4.69 0.34 2.38 0 0 Z " fill="#2DB1F5" transform="translate(200,48)"/>
<path d="M0 0 C1.41377341 2.63904371 2.37240135 5.07120629 3 8 C2.01 8 1.02 8 0 8 C0 6.68 0 5.36 0 4 C-0.99 4.33 -1.98 4.66 -3 5 C-1.125 1.125 -1.125 1.125 0 0 Z " fill="#19ACEC" transform="translate(28,47)"/>
<path d="M0 0 C1.43836751 0.11458693 2.87570966 0.24209116 4.3125 0.375 C5.51326172 0.47941406 5.51326172 0.47941406 6.73828125 0.5859375 C9 1 9 1 12 3 C9.375 4.1875 9.375 4.1875 6 5 C2.625 3.625 2.625 3.625 0 2 C0 1.34 0 0.68 0 0 Z " fill="#E5F4F8" transform="translate(25,211)"/>
<path d="M0 0 C0 0.66 0 1.32 0 2 C-2.64 2 -5.28 2 -8 2 C-8 1.34 -8 0.68 -8 0 C-4.71023192 -1.09658936 -3.28696233 -0.79953138 0 0 Z " fill="#E5F3F4" transform="translate(152,195)"/>
<path d="M0 0 C3.96 0 7.92 0 12 0 C12.33 0.99 12.66 1.98 13 3 C8.71 2.34 4.42 1.68 0 1 C0 0.67 0 0.34 0 0 Z " fill="#2A7EF1" transform="translate(120,195)"/>
<path d="M0 0 C1 3 1 3 0.0625 5.1875 C-0.288125 5.785625 -0.63875 6.38375 -1 7 C-3.64 7 -6.28 7 -9 7 C-9 6.67 -9 6.34 -9 6 C-6.36 5.34 -3.72 4.68 -1 4 C-0.67 2.68 -0.34 1.36 0 0 Z " fill="#2198EA" transform="translate(65,96)"/>
<path d="M0 0 C0.33 0.99 0.66 1.98 1 3 C2.65 3 4.3 3 6 3 C6.33 3.99 6.66 4.98 7 6 C3.7 5.01 0.4 4.02 -3 3 C-2.01 2.01 -1.02 1.02 0 0 Z " fill="#D8F3FC" transform="translate(159,19)"/>
<path d="M0 0 C1.98 0 3.96 0 6 0 C6 0.66 6 1.32 6 2 C6.66 2.33 7.32 2.66 8 3 C5.36 3.33 2.72 3.66 0 4 C0 2.68 0 1.36 0 0 Z " fill="#18B8F6" transform="translate(128,16)"/>
<path d="M0 0 C1.65 0 3.3 0 5 0 C5 1.32 5 2.64 5 4 C3.35 4.33 1.7 4.66 0 5 C0 3.35 0 1.7 0 0 Z " fill="#1C7BF6" transform="translate(40,200)"/>
<path d="M0 0 C0.99 0.66 1.98 1.32 3 2 C3 2.66 3 3.32 3 4 C1.03852126 5.38938077 -0.96166576 6.7260411 -3 8 C-1.125 2.25 -1.125 2.25 0 0 Z " fill="#EBF1F8" transform="translate(218,140)"/>
<path d="M0 0 C0.33 0 0.66 0 1 0 C1 3.3 1 6.6 1 10 C0.01 10 -0.98 10 -2 10 C-1.34 6.7 -0.68 3.4 0 0 Z " fill="#DEF1FD" transform="translate(224,122)"/>
<path d="M0 0 C2.475 0.495 2.475 0.495 5 1 C4.34 3.97 3.68 6.94 3 10 C2.67 10 2.34 10 2 10 C1.77213542 7.98177083 1.54427083 5.96354167 1.31640625 3.9453125 C1.08707039 1.92595684 1.08707039 1.92595684 0 0 Z " fill="#30A0F3" transform="translate(186,110)"/>
<path d="M0 0 C3.625 -0.1875 3.625 -0.1875 7 0 C7 0.66 7 1.32 7 2 C2.545 2.495 2.545 2.495 -2 3 C-1.34 2.01 -0.68 1.02 0 0 Z " fill="#2BA6F1" transform="translate(166,92)"/>
<path d="M0 0 C1.45922693 0.11409593 2.91740598 0.24165544 4.375 0.375 C5.59316406 0.47941406 5.59316406 0.47941406 6.8359375 0.5859375 C9 1 9 1 11 3 C8.03 3 5.06 3 2 3 C2 2.34 2 1.68 2 1 C1.34 0.67 0.68 0.34 0 0 Z " fill="#3AA6EB" transform="translate(125,92)"/>
<path d="M0 0 C0.33 0.66 0.66 1.32 1 2 C0.67 2.66 0.34 3.32 0 4 C-3.3 3.34 -6.6 2.68 -10 2 C-10 1.67 -10 1.34 -10 1 C-6.7 0.67 -3.4 0.34 0 0 Z " fill="#BFEEFE" transform="translate(64,90)"/>
<path d="M0 0 C0.99 0.33 1.98 0.66 3 1 C3 1.99 3 2.98 3 4 C2.34 4 1.68 4 1 4 C1 4.66 1 5.32 1 6 C-0.32 5.34 -1.64 4.68 -3 4 C-2 2 -2 2 0 1 C0 0.67 0 0.34 0 0 Z " fill="#148CEB" transform="translate(69,130)"/>
<path d="M0 0 C2.1875 0.3125 2.1875 0.3125 4 1 C4 1.66 4 2.32 4 3 C3.01 3 2.02 3 1 3 C1 3.66 1 4.32 1 5 C-0.32 4.34 -1.64 3.68 -3 3 C-1.75 1.4375 -1.75 1.4375 0 0 Z " fill="#CCECFD" transform="translate(179,120)"/>
<path d="M0 0 C0.66 0.33 1.32 0.66 2 1 C0.7934375 1.37125 0.7934375 1.37125 -0.4375 1.75 C-3.171081 2.72238859 -3.171081 2.72238859 -3.8125 5.125 C-3.874375 5.74375 -3.93625 6.3625 -4 7 C-4.33 5.35 -4.66 3.7 -5 2 C-2.625 0.9375 -2.625 0.9375 0 0 Z " fill="#2EA5F1" transform="translate(53,94)"/>
<path d="M0 0 C0 0.66 0 1.32 0 2 C-2.64 2.33 -5.28 2.66 -8 3 C-8 2.34 -8 1.68 -8 1 C-4.93251126 -0.86240388 -3.40254489 -1.2151946 0 0 Z " fill="#11B8F4" transform="translate(168,26)"/>
<path d="M0 0 C1.32 0.66 2.64 1.32 4 2 C3.01 2.33 2.02 2.66 1 3 C0.67 3.66 0.34 4.32 0 5 C-0.99 4.01 -1.98 3.02 -3 2 C-2.01 1.34 -1.02 0.68 0 0 Z " fill="#F6F8F5" transform="translate(38,210)"/>
<path d="M0 0 C2.31 0 4.62 0 7 0 C4.82575883 2.50037734 3.26954202 3.43628586 0 4 C0 2.68 0 1.36 0 0 Z " fill="#2583F4" transform="translate(65,192)"/>
<path d="M0 0 C2.4375 0.6875 2.4375 0.6875 5 2 C5.8125 4.625 5.8125 4.625 6 7 C5.34 6.01 4.68 5.02 4 4 C1.94074861 3.27617533 1.94074861 3.27617533 0 3 C0 2.01 0 1.02 0 0 Z " fill="#289BE9" transform="translate(60,112)"/>
<path d="M0 0 C1.32 0.66 2.64 1.32 4 2 C4 2.66 4 3.32 4 4 C1.125 4.125 1.125 4.125 -2 4 C-2.66 3.34 -3.32 2.68 -4 2 C-2.68 2 -1.36 2 0 2 C0 1.34 0 0.68 0 0 Z " fill="#2C9FEE" transform="translate(178,95)"/>
<path d="M0 0 C0 1.65 0 3.3 0 5 C0.99 5.33 1.98 5.66 3 6 C1.68 6.33 0.36 6.66 -1 7 C-1.12375 6.360625 -1.2475 5.72125 -1.375 5.0625 C-1.684375 4.0415625 -1.684375 4.0415625 -2 3 C-2.66 2.67 -3.32 2.34 -4 2 C-1 0 -1 0 0 0 Z " fill="#C8EAFB" transform="translate(95,87)"/>
<path d="M0 0 C0.66 0 1.32 0 2 0 C2.33 1.65 2.66 3.3 3 5 C3.66 5 4.32 5 5 5 C4.67 5.99 4.34 6.98 4 8 C0 3.375 0 3.375 0 0 Z " fill="#ECF6F3" transform="translate(211,58)"/>
</svg>
